HIERARCHY
ROOT Hips
{
	OFFSET 0.000000 0.000000 0.000000 
	CHANNELS 6 Xposition Yposition Zposition Zrotation Yrotation Xrotation
	JOINT LeftUpLeg
	{
		OFFSET 1.363060 -1.794630 0.839290 
		CHANNELS 3 Zrotation Yrotation Xrotation
		JOINT LeftLeg
		{
			OFFSET 2.448110 -6.726130 0.000000 
			CHANNELS 3 Zrotation Yrotation Xrotation
			JOINT LeftFoot
			{
				OFFSET 2.562200 -7.039590 0.000000 
				CHANNELS 3 Zrotation Yrotation Xrotation
				JOINT LeftToeBase
				{
					OFFSET 0.157640 -0.433110 2.322550 
					CHANNELS 3 Zrotation Yrotation Xrotation
					End Site
					{
						OFFSET 0.000000 0.000000 0.000000 
					}
				}
			}
		}
	}
	JOINT RightUpLeg
	{
		OFFSET -1.305520 -1.794630 0.839290 
		CHANNELS 3 Zrotation Yrotation Xrotation
		JOINT RightLeg
		{
			OFFSET -2.542530 -6.985550 0.000000 
			CHANNELS 3 Zrotation Yrotation Xrotation
			JOINT RightFoot
			{
				OFFSET -2.568260 -7.056230 0.000000 
				CHANNELS 3 Zrotation Yrotation Xrotation
				JOINT RightToeBase
				{
					OFFSET -0.164730 -0.452590 2.363150 
					CHANNELS 3 Zrotation Yrotation Xrotation
					End Site
					{
						OFFSET 0.000000 0.000000 0.000000 
					}
				}
			}
		}
	}
	JOINT Spine
	{
		OFFSET 0.028270 2.035590 -0.193380 
		CHANNELS 3 Zrotation Yrotation Xrotation
		JOINT Spine1
		{
			OFFSET 0.056720 2.048850 -0.042750 
			CHANNELS 3 Zrotation Yrotation Xrotation
			JOINT Neck1
			{
				OFFSET -0.054170 1.746240 0.172020 
				CHANNELS 3 Zrotation Yrotation Xrotation
				JOINT Head
				{
					OFFSET 0.104070 1.761360 -0.123970 
					CHANNELS 3 Zrotation Yrotation Xrotation
					End Site
					{
						OFFSET 0.000000 0.000000 0.000000 
					}
				}
			}
			JOINT LeftArm
			{
				OFFSET 3.362410 1.200890 -0.311210 
				CHANNELS 3 Zrotation Yrotation Xrotation
				JOINT LeftForeArm
				{
					OFFSET 4.983000 -0.000000 -0.000000 
					CHANNELS 3 Zrotation Yrotation Xrotation
					JOINT LeftHand
					{
						OFFSET 3.483560 -0.000000 -0.000000 
						CHANNELS 3 Zrotation Yrotation Xrotation
						JOINT LeftHandIndex1
						{
							OFFSET 0.715260 -0.000000 -0.000000 
							CHANNELS 3 Zrotation Yrotation Xrotation
							End Site
							{
								OFFSET 0.000000 0.000000 0.000000 
							}
						}
					}
				}
			}
			JOINT RightArm
			{
				OFFSET -3.136600 1.374050 -0.404650 
				CHANNELS 3 Zrotation Yrotation Xrotation
				JOINT RightForeArm
				{
					OFFSET -5.241900 -0.000000 -0.000000 
					CHANNELS 3 Zrotation Yrotation Xrotation
					JOINT RightHand
					{
						OFFSET -3.444170 -0.000000 -0.000000 
						CHANNELS 3 Zrotation Yrotation Xrotation
						JOINT RightHandIndex1
						{
							OFFSET -0.622530 -0.000000 -0.000000 
							CHANNELS 3 Zrotation Yrotation Xrotation
							End Site
							{
								OFFSET 0.000000 0.000000 0.000000 
							}
						}
					}
				}
			}
		}
	}
}
MOTION
Frames: 18
Frame Time: 0.041667
20.339340 18.329795 16.347731 -177.463709 7.245907 -158.436792 -7.016548 -15.887018 -18.274037 -0.469502 7.938332 22.111101 -0.427210 4.435896 -2.753308 0.169400 2.651800 7.310900 10.360113 17.890040 -18.942001 0.198721 -6.265033 16.922885 4.732711 -22.413675 -3.377006 -0.375600 3.936200 -10.897400 2.464393 1.496502 -12.140442 -0.920328 1.060499 0.964031 10.296752 0.863807 1.912106 1.315200 0.196300 -1.604100 -85.571540 -17.612304 21.436943 18.793405 -21.491879 -3.339212 -0.174525 0.370732 22.307187 -7.125000 0.000000 0.000000 86.492845 -1.873055 -7.277649 -11.978907 15.946386 -1.489031 -0.582727 -0.018746 32.810451 7.125000 0.000000 0.000000 
20.365605 18.329244 16.323341 -177.351047 7.229617 -158.482128 -6.846507 -15.935269 -18.086428 -0.477489 7.928188 22.063996 -0.446287 4.498866 -2.807952 0.182600 2.752600 7.590700 10.412311 18.691538 -18.405653 0.212564 -6.230566 16.876482 4.839550 -22.766801 -4.128366 -0.252200 3.231500 -8.924000 2.597652 1.467104 -12.140445 -0.860819 1.038667 1.041148 9.444313 0.824683 2.451115 1.089700 0.230700 -1.458400 -85.695479 -16.706970 20.885838 18.513532 -21.123783 -3.232909 -0.179995 0.382078 22.614017 -7.125000 0.000000 0.000000 86.434137 -1.978633 -8.999112 -11.736823 15.630724 -1.431583 -0.579938 -0.015818 34.053875 7.125000 0.000000 0.000000 
20.395734 18.328250 16.305021 -177.226366 7.117087 -158.424557 -6.607274 -15.810747 -18.121263 -0.480822 7.925761 22.027739 -0.370203 4.317930 -2.773469 0.187500 2.789100 7.692100 10.457969 19.794191 -17.884989 0.217683 -6.197983 16.829996 5.071123 -23.632054 -4.768377 -0.169300 2.650500 -7.307100 2.654460 1.453271 -12.198281 -0.907199 1.043866 1.114587 9.653366 0.918559 2.516998 1.158900 0.277200 -1.455700 -85.761090 -15.848239 20.028745 18.197068 -20.719481 -3.110000 -0.195619 0.379127 23.341315 -7.125000 0.000000 0.000000 86.389712 -2.137864 -10.223434 -11.502314 15.321649 -1.372155 -0.565899 0.005894 34.991251 7.125000 0.000000 0.000000 
20.422110 18.325271 16.291226 -177.340116 7.161102 -158.495924 -6.648839 -15.906245 -17.933301 -0.486794 7.917025 22.008789 -0.425634 4.463797 -2.913886 0.197200 2.859300 7.887200 10.444108 19.990802 -17.640276 0.218756 -6.191447 16.794356 5.144564 -23.928851 -4.659422 -0.207300 2.931300 -8.087400 2.457937 1.503925 -12.220442 -1.033081 1.063635 1.042108 9.972567 0.817284 3.197509 1.235200 0.265900 -1.247900 -85.706986 -14.963319 19.277063 17.840894 -20.262608 -2.994272 -0.155881 0.448806 24.064317 -7.125000 0.000000 0.000000 86.557879 -2.230842 -12.174028 -11.288523 15.067929 -1.322895 -0.549090 0.049446 36.609917 7.125000 0.000000 0.000000 
20.463274 18.318870 16.273127 -177.439512 7.239383 -158.717868 -6.665705 -16.352026 -17.463049 -0.493465 7.909980 21.998057 -0.651364 5.047118 -3.198435 0.196300 2.852800 7.869100 10.428391 20.626781 -17.076453 0.221720 -6.179384 16.763657 5.287437 -24.464256 -4.883793 -0.208400 2.939300 -8.109800 2.456257 1.484244 -12.179283 -0.910491 1.055780 0.967225 10.256457 0.732761 3.725773 1.329400 0.255400 -1.081500 -85.849847 -14.086238 18.084227 17.398575 -19.696392 -2.828819 -0.175284 0.443635 25.136954 -7.125000 0.000000 0.000000 86.547259 -2.396670 -13.301317 -11.138102 14.874815 -1.287997 -0.541073 0.064266 37.393081 7.125000 0.000000 0.000000 
20.487995 18.318649 16.254145 -177.505498 7.233673 -158.739769 -6.668903 -16.615890 -17.257877 -0.498064 7.899172 21.979349 -0.790510 5.404669 -3.360315 0.175800 2.700800 7.447000 10.422165 20.444844 -17.054804 0.235331 -6.174080 16.759197 5.170685 -23.982338 -5.229895 -0.175300 2.697400 -7.437400 2.420172 1.446745 -12.241942 -0.929072 1.034705 0.933116 10.341673 0.660093 4.185711 1.357700 0.249300 -0.949300 -86.030683 -13.160794 16.646033 16.901133 -19.053500 -2.660742 -0.174573 0.473825 26.324679 -7.125000 0.000000 0.000000 86.469522 -2.756968 -12.800287 -11.067166 14.740056 -1.269986 -0.553428 0.021010 36.454474 7.125000 0.000000 0.000000 
20.514150 18.319973 16.234060 -177.479601 7.221278 -158.692476 -6.560568 -16.805353 -17.133308 -0.494548 7.896124 21.986909 -0.859462 5.583604 -3.484645 0.176300 2.704600 7.457300 10.610394 19.662543 -17.308128 0.250057 -6.167406 16.729899 4.914771 -23.009663 -5.101719 -0.186700 2.782900 -7.674900 2.322954 1.457887 -12.307237 -1.046898 1.035116 0.956101 10.498043 0.582011 4.591980 1.396400 0.236100 -0.838300 -86.030978 -12.186749 15.494262 16.408366 -18.411596 -2.504821 -0.172864 0.508589 26.988152 -7.125000 0.000000 0.000000 86.635236 -3.007570 -13.396695 -11.042149 14.693282 -1.266116 -0.562991 0.009069 36.602057 7.125000 0.000000 0.000000 
20.544940 18.316331 16.216181 -177.477511 7.362770 -158.801938 -6.517805 -17.034329 -16.839316 -0.490115 7.904486 22.022996 -0.988351 5.917825 -3.705809 0.177800 2.716100 7.489300 10.758872 19.500518 -17.156713 0.254961 -6.157179 16.680790 4.853084 -22.807173 -4.780802 -0.213700 2.976400 -8.213100 2.283408 1.509965 -12.289089 -1.067025 1.058813 0.926854 10.762019 0.484139 5.054407 1.485500 0.216300 -0.706900 -86.185311 -11.321048 13.726243 15.878198 -17.728724 -2.334576 -0.178207 0.529216 28.269524 -7.125000 0.000000 0.000000 86.868241 -3.089276 -15.506127 -11.075950 14.763388 -1.273964 -0.553330 0.049980 38.330719 7.125000 0.000000 0.000000 
20.563260 18.311917 16.202938 -177.557994 7.332853 -158.879054 -6.567708 -17.091349 -16.723235 -0.485064 7.917857 22.065561 -1.009221 5.972012 -3.787185 0.178400 2.720700 7.502200 10.772207 19.660267 -16.921126 0.253588 -6.147110 16.626688 4.942927 -23.193005 -4.448746 -0.263800 3.304300 -9.127100 2.260914 1.492792 -12.323721 -1.132946 1.050344 0.839472 10.968987 0.400529 5.334217 1.564800 0.191600 -0.631900 -86.521257 -10.544637 11.276830 15.278167 -16.959118 -2.116550 -0.203447 0.492133 30.633530 -7.125000 0.000000 0.000000 86.974325 -3.203729 -17.177931 -11.150765 14.871867 -1.289052 -0.544555 0.074137 39.560375 7.125000 0.000000 0.000000 
20.572641 18.310593 16.191240 -177.656296 7.127440 -158.780109 -6.594296 -17.018803 -16.874472 -0.476228 7.934176 22.112027 -0.929066 5.766032 -3.747012 0.178800 2.723600 7.510200 10.754796 19.483055 -17.008065 0.255868 -6.133083 16.562445 4.975445 -23.349631 -4.122567 -0.331800 3.702100 -10.240000 2.136214 1.499417 -12.453734 -1.295889 1.051065 0.787993 10.786017 0.303434 5.455714 1.503000 0.153000 -0.608200 -86.743989 -9.741084 9.330394 14.634563 -16.120218 -1.950667 -0.185666 0.561127 32.438580 -7.125000 0.000000 0.000000 87.020808 -3.467696 -17.051399 -11.226091 14.936955 -1.301455 -0.551484 0.037100 38.284445 7.125000 0.000000 0.000000 
20.588864 18.311145 16.175128 -177.697358 7.088112 -158.597907 -6.582268 -16.762172 -17.121878 -0.469523 7.952824 22.150387 -0.869502 5.619696 -3.732184 0.149400 2.490500 6.863200 10.769998 19.128840 -17.272274 0.264015 -6.118392 16.524929 4.890195 -23.010831 -4.105466 -0.330500 3.695000 -10.220200 2.094109 1.532735 -12.554379 -1.340467 1.069101 0.864190 10.523552 0.313803 5.734199 1.421000 0.180100 -0.533600 -86.944931 -8.966069 7.230210 13.960001 -15.241653 -1.793516 -0.161476 0.634952 34.029956 -7.125000 0.000000 0.000000 86.896414 -3.855344 -15.140365 -11.335906 15.010988 -1.320260 -0.563195 -0.046311 35.072820 7.125000 0.000000 0.000000 
20.621420 18.308386 16.159788 -177.602100 7.007191 -158.483513 -6.417912 -16.241213 -17.397994 -0.469137 7.965945 22.142601 -0.738830 5.300670 -3.608118 0.112000 2.158100 5.942800 10.943319 19.433314 -17.205810 0.260804 -6.115448 16.553732 4.957601 -23.261753 -4.420139 -0.299600 3.519600 -9.728900 2.331852 1.337309 -12.574955 -1.222921 0.984390 0.990389 10.828867 0.541720 6.145464 1.524900 0.320500 -0.411300 -87.134949 -8.240587 3.976563 13.295427 -14.411696 -1.627425 -0.148961 0.672199 36.265470 -7.125000 0.000000 0.000000 86.591026 -3.988039 -14.166259 -11.288824 14.918950 -1.311038 -0.573456 -0.076027 33.868203 7.125000 0.000000 0.000000 
20.659604 18.302978 16.141799 -177.502740 7.021603 -158.544155 -6.257083 -16.070141 -17.311971 -0.474467 7.963876 22.111407 -0.769549 5.392417 -3.639950 0.094400 1.981800 5.455500 11.150255 20.113644 -16.805685 0.250599 -6.130312 16.624776 5.099976 -23.813710 -4.787730 -0.265300 3.313300 -9.152300 2.436409 1.204633 -12.537505 -1.189629 0.925874 1.034881 11.481447 0.633062 6.551978 1.727200 0.391700 -0.282400 -87.136313 -7.508701 0.357892 12.637012 -13.619134 -1.481798 -0.128559 0.717502 38.811219 -7.125000 0.000000 0.000000 86.585322 -4.039335 -14.585596 -11.275917 14.908739 -1.312224 -0.583091 -0.060803 34.341178 7.125000 0.000000 0.000000 
20.684656 18.300219 16.113436 -177.497941 7.406598 -158.604310 -6.274911 -16.634783 -16.774989 -0.485426 7.935553 22.071386 -1.169499 6.409811 -4.054289 0.092300 1.959800 5.394600 11.270409 19.730118 -16.855307 0.248466 -6.174196 16.735101 4.888364 -22.999430 -4.857367 -0.270300 3.344300 -9.238900 2.250049 1.390870 -12.515846 -1.303671 1.015645 1.108658 12.210635 0.645050 6.707183 1.915500 0.407100 -0.239200 -87.116613 -6.777862 -3.464285 11.972793 -12.834567 -1.350303 -0.094958 0.767460 42.053425 -7.125000 0.000000 0.000000 86.714750 -4.441213 -13.670122 -11.515169 15.191325 -1.362787 -0.585440 -0.083013 32.963670 7.125000 0.000000 0.000000 
20.707501 18.299777 16.093682 -177.562512 7.626253 -158.611100 -6.348639 -16.658448 -16.574569 -0.499295 7.904694 22.003737 -1.251026 6.616916 -4.156903 0.101600 2.055500 5.659000 11.358955 19.043954 -17.117226 0.241264 -6.229661 16.885533 4.637630 -22.012798 -4.886814 -0.319400 3.633100 -10.046600 2.073771 1.511784 -12.599416 -1.366056 1.069861 1.097537 12.030498 0.611132 6.593898 1.836900 0.382200 -0.300600 -87.154207 -5.992220 -7.670324 11.315355 -12.074204 -1.230147 -0.059665 0.812759 45.914891 -7.125000 0.000000 0.000000 86.646186 -4.769252 -12.548687 -11.543422 15.202218 -1.368789 -0.589085 -0.105719 31.207120 7.125000 0.000000 0.000000 
20.736856 18.297791 16.089268 -177.751628 7.501064 -158.692768 -6.449622 -16.178902 -16.694136 -0.514731 7.882486 21.920007 -0.995203 5.967165 -3.877819 0.109300 2.131500 5.869300 11.329789 19.058873 -17.052962 0.223751 -6.275664 17.025068 4.680501 -22.166349 -5.023340 -0.327700 3.679200 -10.176000 1.873234 1.361794 -12.756004 -1.361227 0.979147 0.879280 10.880376 0.638035 6.693781 1.461500 0.409100 -0.307800 -87.112303 -5.194476 -12.712184 10.657533 -11.358184 -1.134421 -0.011187 0.868411 50.225205 -7.125000 0.000000 0.000000 86.882993 -5.979979 -8.380478 -12.717687 16.661464 -1.625231 -0.542018 -0.186459 26.533633 7.125000 0.000000 0.000000 
20.762239 18.295032 16.077459 -177.866369 7.375504 -158.743641 -6.366143 -16.798125 -16.362511 -0.527836 7.839263 21.828078 -1.087077 6.191408 -3.956607 0.156200 2.546300 7.018000 11.361466 18.929587 -17.065591 0.212427 -6.321231 17.136005 4.700616 -22.248273 -5.109132 -0.313700 3.600500 -9.955300 1.715573 1.177001 -12.842446 -1.435156 0.874964 0.789406 10.811499 0.777913 6.726961 1.398700 0.483100 -0.311300 -87.049994 -4.599183 -19.797646 9.985855 -10.757136 -1.048647 0.073205 0.916452 56.448862 -7.125000 0.000000 0.000000 87.138277 -6.300194 -8.112973 -13.086300 17.140417 -1.717706 -0.541303 -0.185093 26.168070 7.125000 0.000000 0.000000 
20.787732 18.294480 16.053401 -177.826579 7.390644 -158.762391 -6.106891 -18.190880 -15.636411 -0.538300 7.783022 21.737517 -1.437082 7.071328 -4.432652 0.270300 3.344100 9.238200 11.524141 18.722188 -17.105240 0.206053 -6.367284 17.244461 4.629933 -21.986811 -5.231739 -0.302500 3.536400 -9.776000 1.684203 1.162063 -12.786675 -1.469926 0.860795 0.949448 11.307651 0.747991 6.792711 1.533100 0.471300 -0.286300 -87.154492 -4.275848 -29.183750 9.310558 -10.323969 -0.973651 0.211258 0.941387 65.372013 -7.125000 0.000000 0.000000 87.179472 -6.312715 -8.725804 -13.157117 17.244924 -1.741277 -0.558492 -0.161075 26.554735 7.125000 0.000000 0.000000 
